Coordinates
version=1
nRows=11
nColumns=36
inDegrees=yes

Units are S.I. units (second, meters, Newtons, ...)
If the header above contains a line with 'inDegrees', this indicates whether rotational values are in degrees (yes) or radians (no).

endheader
time	pelvis_tilt	pelvis_list	pelvis_rotation	pelvis_tx	pelvis_ty	pelvis_tz	hip_flexion_r	hip_adduction_r	hip_rotation_r	knee_angle_r	knee_angle_r_beta	ankle_angle_r	subtalar_angle_r	mtp_angle_r	hip_flexion_l	hip_adduction_l	hip_rotation_l	knee_angle_l	knee_angle_l_beta	ankle_angle_l	subtalar_angle_l	mtp_angle_l	lumbar_extension	lumbar_bending	lumbar_rotation	arm_flex_r	arm_add_r	arm_rot_r	elbow_flex_r	pro_sup_r	arm_flex_l	arm_add_l	arm_rot_l	elbow_flex_l	pro_sup_l
      3.36000000	    -20.00760169	     -0.03735730	     -0.38595597	     -0.29725324	      0.79236817	     -0.59948290	     64.20522048	     -9.57287751	     -0.43018013	     65.67721643	      1.14628367	     25.51532835	     -3.79014467	     -7.49999987	     65.17110324	    -11.84184470	     -1.70019815	     65.26065545	      1.13901331	     23.14874116	     -2.92128042	     -7.49999987	    -14.39206370	      0.53678118	     -0.26392457	     74.91759877	     -5.83753016	     12.82797525	     95.81811720	    112.97494944	     74.29106120	     -2.01785703	     13.03576046	     91.89261356	    110.13650969
      3.37000000	    -20.60166536	      0.03677802	     -0.37257611	     -0.29929510	      0.78655562	     -0.59979790	     65.71961355	     -9.73119515	     -0.23446054	     66.83741270	      1.16653292	     25.80929626	     -3.58290241	     -7.49999987	     66.62969802	    -11.80981848	     -1.58431930	     66.33160531	      1.15770491	     23.43001911	     -2.94960617	     -7.49999987	    -14.39942112	      0.63238641	     -0.36955965	     75.60447974	     -5.70779850	     13.44059614	     97.11972613	    113.05378808	     74.57604849	     -2.18734560	     13.17542562	     93.47151200	    110.23277265
      3.38000000	    -21.00781748	      0.06066106	     -0.35823648	     -0.30135964	      0.78108241	     -0.60017100	     67.02463363	     -9.90264744	     -0.14816927	     67.98363930	      1.18653834	     26.05707462	     -3.36138046	     -7.49999987	     67.90444567	    -11.83408704	     -1.45922065	     67.42500337	      1.17678831	     23.67061543	     -2.94805761	     -7.49999987	    -14.62694935	      0.70060805	     -0.42388150	     76.32008909	     -5.61982514	     13.85071073	     98.20154359	    113.10393539	     75.02422048	     -2.15919961	     13.31899458	     94.64157147	    110.29393957
      3.39000000	    -21.39374263	      0.04709594	     -0.36599287	     -0.30338793	      0.77570545	     -0.60048404	     68.25526328	    -10.03724740	     -0.11085830	     69.05808136	      1.20529089	     26.30852523	     -3.15720191	     -7.49999987	     69.15762007	    -11.92996310	     -1.34488924	     68.51167536	      1.19575431	     23.91610748	     -2.90640823	     -7.49999987	    -14.86403523	      0.75129226	     -0.37327419	     76.93895381	     -5.65613833	     14.16316558	     99.35932410	    113.15953283	     75.49295455	     -2.03378967	     13.56782522	     95.65283433	    110.35854540
      3.40000000	    -21.78119688	      0.02218500	     -0.41245311	     -0.30539031	      0.77047910	     -0.60062101	     69.42222874	    -10.09173527	     -0.04508536	     70.02225154	      1.22211884	     26.60841249	     -2.98110110	     -7.49999987	     70.37099415	    -12.07264982	     -1.22365919	     69.53447557	      1.21360554	     24.17332618	     -2.80177014	     -7.49999987	    -15.10722881	      0.81564318	     -0.27870601	     77.54100255	     -5.66462159	     14.43352938	    100.52576809	    113.22194116	     75.95965100	     -1.97714100	     13.87528079	     96.62134512	    110.40912233
      3.41000000	    -21.99826924	      0.01374992	     -0.44734594	     -0.30739425	      0.76553931	     -0.60062856	     70.42282911	    -10.14478877	      0.03871164	     71.01837185	      1.23950442	     26.80501563	     -2.96826429	     -7.49999987	     71.38923641	    -12.21266762	     -1.12702849	     70.53978930	      1.23115158	     24.35705394	     -2.80581230	     -7.49999987	    -15.54361343	      0.86204318	     -0.23878443	     78.27217015	     -5.58201014	     14.53598500	    101.32863491	    113.27217558	     76.58830113	     -2.02421732	     14.00744153	     97.31890325	    110.45201665
      3.42000000	    -22.54092140	      0.02162101	     -0.46636518	     -0.30924206	      0.76017925	     -0.60083939	     71.75493753	    -10.26470704	      0.11861944	     71.97968254	      1.25628245	     27.29787048	     -2.39034701	     -7.49999987	     72.71146163	    -12.30294423	     -1.00878658	     71.49082025	      1.24775020	     24.85145235	     -2.31698422	     -7.49999987	    -15.57311402	      0.92863226	     -0.30063087	     78.76377648	     -5.46318203	     14.95634263	    102.48564837	    113.31187353	     76.87286153	     -2.15653882	     14.36917042	     98.63370812	    110.40193512
      3.43000000	    -22.80540430	      0.04967843	     -0.47437502	     -0.31114211	      0.75519134	     -0.60105442	     72.81872130	    -10.41474925	      0.17511735	     72.96913073	      1.27355158	     27.47648434	     -2.36569966	     -7.49999987	     73.76140341	    -12.37745005	     -0.95129114	     72.46677103	      1.26478375	     25.02500212	     -2.35033781	     -7.49999987	    -15.91060756	      0.94758083	     -0.32076022	     79.39808416	     -5.41050929	     15.15413343	    103.26577501	    113.36120189	     77.40419279	     -2.18387455	     14.52172263	     99.37319268	    110.46085415
      3.44000000	    -23.20990816	      0.09868725	     -0.48773832	     -0.31296337	      0.75010392	     -0.60123411	     73.99025325	    -10.56015806	      0.26243675	     73.88286901	      1.28949933	     27.74598000	     -2.19365192	     -7.49999987	     74.91162563	    -12.43886432	     -0.88555894	     73.37111136	      1.28056747	     25.25129155	     -2.27841241	     -7.49999987	    -16.07284636	      0.95293611	     -0.34219312	     79.91931393	     -5.38752711	     15.51208149	    104.21488269	    113.42599945	     77.80613270	     -2.29544410	     14.84344024	    100.34300211	    110.55153760
      3.45000000	    -23.61725347	      0.16083475	     -0.51045515	     -0.31479018	      0.74509153	     -0.60138465	     75.17032497	    -10.68045185	      0.40651333	     74.78711228	      1.30528135	     28.09492363	     -1.92877160	     -7.49999987	     76.02867956	    -12.49753263	     -0.82074906	     74.24227498	      1.29577214	     25.54634474	     -2.13560315	     -7.49999987	    -16.23511190	      0.93909535	     -0.39019518	     80.44135229	     -5.36542934	     15.91080623	    105.12112493	    113.48465409	     78.21570367	     -2.46926550	     15.22873076	    101.34609029	    110.63664377
      3.46000000	    -23.75451782	      0.21125498	     -0.52936572	     -0.31665086	      0.74043677	     -0.60158235	     76.06020690	    -10.78376163	      0.55594703	     75.70604969	      1.32131983	     28.27556206	     -1.93398785	     -7.49999987	     76.88255971	    -12.53953015	     -0.73156899	     75.14030070	      1.31144565	     25.69374527	     -2.16283518	     -7.49999987	    -16.69245449	      0.93306378	     -0.40947765	     81.08622666	     -5.15912353	     16.05961810	    105.58479199	    113.51433504	     78.78748666	     -2.37105982	     15.34417553	    101.79410404	    110.67558756
